<?xml version="1.0" encoding="iso-8859-1"?>
<!-- Generator: Adobe Illustrator 19.0.0, SVG Export Plug-In . SVG Version: 6.00 Build 0)  -->
<svg xmlns="http://www.w3.org/2000/svg" xmlns:xlink="http://www.w3.org/1999/xlink" version="1.1" id="Layer_1" x="0px" y="0px" viewBox="0 0 512 512" style="enable-background:new 0 0 512 512;" xml:space="preserve" width="512px" height="512px">
<g>
	<g>
		<g>
			<path d="M489.454,138.234h-75.252V63.458c0-12.384-10.114-22.459-22.546-22.459h-75.229c-12.432,0-22.546,10.075-22.546,22.459     v74.776h-75.252c-12.432,0-22.546,10.075-22.546,22.459v50.91c0,4.142,3.358,7.5,7.5,7.5c4.142,0,7.5-3.358,7.5-7.5v-50.91     c0-4.113,3.385-7.459,7.546-7.459h82.752c4.142,0,7.5-3.358,7.5-7.5V63.458c0-4.113,3.385-7.459,7.546-7.459h75.229     c4.161,0,7.546,3.346,7.546,7.459v82.276c0,4.142,3.358,7.5,7.5,7.5h82.752c4.161,0,7.546,3.346,7.546,7.459v74.796     c0,4.113-3.385,7.459-7.546,7.459h-82.752c-4.142,0-7.5,3.358-7.5,7.5v28.712c0,4.142,3.358,7.5,7.5,7.5     c4.142,0,7.5-3.358,7.5-7.5v-21.212h75.252c12.432,0,22.546-10.075,22.546-22.459v-74.796     C512,148.31,501.886,138.234,489.454,138.234z" fill="#FFFFFF"/>
			<path d="M75.449,272.627c-4.142,0-7.5,3.358-7.5,7.5v9.651c0,4.142,3.358,7.5,7.5,7.5c4.142,0,7.5-3.358,7.5-7.5v-9.651     C82.949,275.985,79.591,272.627,75.449,272.627z" fill="#FFFFFF"/>
			<path d="M341.399,157.218V93.879c0-4.142-3.358-7.5-7.5-7.5c-4.142,0-7.5,3.358-7.5,7.5v63.338     c0,6.569-5.345,11.914-11.914,11.914h-63.338c-4.142,0-7.5,3.358-7.5,7.5c0,4.142,3.358,7.5,7.5,7.5h63.338v0.001     C329.325,184.132,341.399,172.058,341.399,157.218z" fill="#FFFFFF"/>
			<path d="M434.609,340.185h-2.207v-11.802c0-14.779-12.074-26.802-26.914-26.802H236.026c-3.942,0-7.291-2.975-7.463-6.632     c-0.091-1.919,0.588-3.74,1.912-5.128c1.349-1.415,3.175-2.193,5.14-2.193h99.982c9.779,0,18.974-3.79,25.891-10.672     c6.928-6.895,10.739-16.062,10.73-25.814c-0.009-9.439-7.728-17.118-17.207-17.118H212.396c-8.389,0-16.625,2.269-23.819,6.561     l-37.007,22.076c-0.347,0.207-0.746,0.316-1.152,0.316h-16.726c-4.142,0-7.5,3.358-7.5,7.5c0,4.142,3.358,7.5,7.5,7.5h16.726     c3.111,0,6.167-0.842,8.836-2.434l37.007-22.077c4.872-2.906,10.451-4.442,16.135-4.442h142.616c1.216,0,2.206,0.956,2.207,2.131     c0.005,5.727-2.236,11.113-6.311,15.168c-4.086,4.066-9.523,6.305-15.31,6.305h-99.982c-6.018,0-11.848,2.493-15.995,6.841     c-4.182,4.385-6.328,10.135-6.041,16.19c0.556,11.732,10.416,20.923,22.447,20.923h169.462c6.569,0,11.914,5.294,11.914,11.802     v11.802H230.762c-4.142,0-7.5,3.358-7.5,7.5c0,4.142,3.358,7.5,7.5,7.5H434.61c6.569,0,11.914,5.294,11.914,11.802     s-5.345,11.802-11.914,11.802H230.762c-4.142,0-7.5,3.358-7.5,7.5c0,4.142,3.358,7.5,7.5,7.5h167.227v11.803     c0,6.508-5.345,11.802-11.914,11.802H230.762c-4.142,0-7.5,3.358-7.5,7.5c0,4.142,3.358,7.5,7.5,7.5h89.57v11.802     c0,6.508-5.345,11.802-11.914,11.802h-96.022c-5.684,0-11.263-1.536-16.135-4.442l-37.008-22.077     c-2.67-1.592-5.726-2.434-8.836-2.434h-16.726c-4.142,0-7.5,3.358-7.5,7.5c0,4.142,3.358,7.5,7.5,7.5h16.726     c0.406,0,0.805,0.109,1.152,0.316l37.007,22.077c7.194,4.292,15.431,6.561,23.819,6.561h96.022     c14.84,0,26.914-12.023,26.914-26.802v-11.802h50.742c14.84,0,26.914-12.023,26.914-26.802v-11.803h21.621     c14.84,0,26.914-12.023,26.914-26.802S449.45,340.185,434.609,340.185z" fill="#FFFFFF"/>
			<path d="M94.57,248.499H17.5c-9.649,0-17.5,7.851-17.5,17.5v173.023c0,9.649,7.851,17.5,17.5,17.5h77.07     c9.649,0,17.5-7.851,17.5-17.5V265.999C112.07,256.35,104.22,248.499,94.57,248.499z M97.07,439.022c0,1.378-1.122,2.5-2.5,2.5     H17.5c-1.378,0-2.5-1.122-2.5-2.5V265.999c0-1.378,1.122-2.5,2.5-2.5h77.07c1.378,0,2.5,1.122,2.5,2.5V439.022z" fill="#FFFFFF"/>
		</g>
	</g>
</g>
<g>
</g>
<g>
</g>
<g>
</g>
<g>
</g>
<g>
</g>
<g>
</g>
<g>
</g>
<g>
</g>
<g>
</g>
<g>
</g>
<g>
</g>
<g>
</g>
<g>
</g>
<g>
</g>
<g>
</g>
</svg>
