<?xml version="1.0" encoding="iso-8859-1"?>
<!-- Generator: Adobe Illustrator 19.0.0, SVG Export Plug-In . SVG Version: 6.00 Build 0)  -->
<svg xmlns="http://www.w3.org/2000/svg" xmlns:xlink="http://www.w3.org/1999/xlink" version="1.1" id="Layer_1" x="0px" y="0px" viewBox="0 0 511.999 511.999" style="enable-background:new 0 0 511.999 511.999;" xml:space="preserve" width="512px" height="512px">
<g>
	<g>
		<g>
			<path d="M376.367,416.222c19.658,0,35.65-15.86,35.65-35.355s-15.992-35.355-35.65-35.355c-19.657,0-35.65,15.86-35.65,35.355     C340.716,400.362,356.709,416.222,376.367,416.222z M376.367,360.513c11.387,0,20.65,9.131,20.65,20.355     c0,3.053-0.685,5.95-1.912,8.551l-27.341-27.055C370.384,361.175,373.298,360.513,376.367,360.513z M357.282,373.094     l26.898,26.617c-2.411,0.975-5.05,1.513-7.813,1.513c-11.387,0-20.65-9.131-20.65-20.355     C355.716,378.115,356.273,375.49,357.282,373.094z" fill="#FFFFFF"/>
			<path d="M356.953,171.657h-41.317c-9.488,0-17.207,7.673-17.207,17.105v56.166c0,9.432,7.719,17.105,17.207,17.105h41.317     c9.488,0,17.207-7.673,17.207-17.105v-56.166C374.16,179.331,366.441,171.657,356.953,171.657z M359.16,244.928     c0,1.161-0.99,2.105-2.207,2.105h-41.317c-1.217,0-2.207-0.944-2.207-2.105v-56.166c0-1.161,0.99-2.105,2.207-2.105h41.317     c1.217,0,2.207,0.944,2.207,2.105V244.928z" fill="#FFFFFF"/>
			<path d="M511.904,293.222l-4.64-28.69c-0.013-0.09-0.027-0.179-0.043-0.268L488.62,149.228c-0.009-0.063-0.02-0.125-0.03-0.188     l-5.133-31.748c-2.106-13.025-13.282-22.479-26.575-22.479H274.977l-5.774-17.142C266.851,70.69,260.293,66,252.886,66h-15.128     c-7.407,0-13.965,4.691-16.316,11.673l-5.775,17.142h-12.863c-10.304,0-19.545,5.693-24.118,14.856l-18.554,37.178     c-0.051,0.098-0.101,0.196-0.148,0.297l-48.116,96.415c-1.647,3.3-4.825,5.675-8.5,6.353L54.8,258.865     c-0.089,0.015-0.178,0.031-0.266,0.049l-16.676,3.074C15.922,266.031,0,285.018,0,307.135v54.522     c0,14.728,12.074,26.71,26.914,26.71h22.054C52.734,420.761,80.587,446,114.277,446c36.25,0,65.742-29.218,65.742-65.132     c0-11.184-2.859-21.716-7.892-30.921h146.39c-3.893,7.117-6.483,15.028-7.459,23.421H201.64c-4.142,0-7.5,3.358-7.5,7.5     c0,4.142,3.358,7.5,7.5,7.5h109.418C314.824,420.761,342.676,446,376.367,446c36.25,0,65.742-29.218,65.742-65.132     s-29.492-65.131-65.742-65.131c-18.183,0-34.665,7.351-46.578,19.21H161.194c-0.111,0-0.222,0.002-0.332,0.007     c-11.914-11.865-28.398-19.218-46.585-19.218c-33.69,0-61.543,25.237-65.309,57.631H26.914c-6.569,0-11.914-5.253-11.914-11.71     v-11.71h30.681c4.142,0,7.5-3.358,7.5-7.5c0-4.142-3.358-7.5-7.5-7.5H15v-23.421h31.328c9.488,0,17.207-7.673,17.207-17.105     v-2.105H456.23v2.105c0,9.432,7.719,17.105,17.207,17.105H497v23.421h-42.491c-4.143,0-7.5,3.358-7.5,7.5     c0,4.142,3.357,7.5,7.5,7.5H497v11.71c0,6.457-5.345,11.71-11.914,11.71H463.73c-4.143,0-7.5,3.358-7.5,7.5     c0,4.142,3.357,7.5,7.5,7.5h21.355c14.841,0,26.914-11.982,26.914-26.71v-67.237C512,294.019,511.967,293.618,511.904,293.222z      M325.625,380.753c0.063-27.589,22.802-50.017,50.742-50.017c27.979,0,50.742,22.489,50.742,50.131     c0,27.642-22.763,50.133-50.742,50.133c-27.94,0-50.679-22.428-50.742-50.017c0.001-0.038,0.001-0.076,0.001-0.115     S325.625,380.79,325.625,380.753z M114.277,330.737c27.979,0,50.742,22.489,50.742,50.131c0,27.642-22.762,50.132-50.742,50.132     c-27.98,0-50.742-22.489-50.742-50.132C63.535,353.225,86.298,330.737,114.277,330.737z M48.535,294.42     c0,1.161-0.99,2.105-2.207,2.105H16.9c3.712-10.018,12.549-17.735,23.677-19.786l7.958-1.467V294.42z M235.657,82.461     c0.295-0.875,1.14-1.462,2.102-1.462h15.128c0.962,0,1.807,0.587,2.102,1.462l4.161,12.354h-27.654L235.657,82.461z      M456.23,275.209v2.105H63.535v-4.807l42.551-7.842c8.285-1.527,15.464-6.913,19.204-14.407l46.121-92.417h30.23     c4.143,0,7.5-3.358,7.5-7.5c0-4.142-3.357-7.5-7.5-7.5h-22.744l13.211-26.473c1.987-3.981,6.185-6.554,10.696-6.554h18.078     c0.114,0.003,0.232,0.003,0.348,0h48.185c0.117,0.003,0.232,0.003,0.35,0h187.119c5.894,0,10.842,4.152,11.767,9.873     l3.744,23.153H230.761c-4.143,0-7.5,3.358-7.5,7.5c0,4.142,3.357,7.5,7.5,7.5h244.058l16.211,100.263h-17.593     C463.949,258.104,456.23,265.778,456.23,275.209z M497,296.526h-23.563c-1.217,0-2.207-0.944-2.207-2.105v-19.21     c0-1.161,0.99-2.105,2.207-2.105h20.019L497,295.023V296.526z" fill="#FFFFFF"/>
			<path d="M439.462,133.828h9.707c4.143,0,7.5-3.358,7.5-7.5c0-4.142-3.357-7.5-7.5-7.5h-9.707c-4.143,0-7.5,3.358-7.5,7.5     C431.962,130.469,435.32,133.828,439.462,133.828z" fill="#FFFFFF"/>
			<path d="M182.226,306.13c-4.142,0-7.5,3.358-7.5,7.5c0,4.142,3.358,7.5,7.5,7.5h87.363c4.143,0,7.5-3.358,7.5-7.5     c0-4.142-3.357-7.5-7.5-7.5H182.226z" fill="#FFFFFF"/>
			<path d="M114.277,416.222c19.658,0,35.65-15.86,35.65-35.355s-15.993-35.355-35.65-35.355c-19.657,0-35.65,15.86-35.65,35.355     C78.627,400.362,94.62,416.222,114.277,416.222z M114.277,360.513c11.387,0,20.65,9.131,20.65,20.355     c0,3.053-0.685,5.95-1.912,8.551l-27.342-27.055C108.295,361.175,111.209,360.513,114.277,360.513z M95.192,373.094     l26.898,26.617c-2.411,0.975-5.05,1.513-7.813,1.513c-11.387,0-20.65-9.131-20.65-20.355     C93.627,378.115,94.184,375.49,95.192,373.094z" fill="#FFFFFF"/>
			<path d="M263.768,171.657h-70.345c-6.583,0-12.49,3.642-15.415,9.503l-28.029,56.166c-2.652,5.316-2.37,11.507,0.757,16.561     c3.155,5.101,8.635,8.146,14.658,8.146h98.375c9.488,0,17.207-7.673,17.207-17.105v-56.166     C280.975,179.331,273.256,171.657,263.768,171.657z M265.975,244.928c0,1.161-0.99,2.105-2.207,2.105h-98.375     c-1.096,0-1.662-0.65-1.901-1.037c-0.271-0.439-0.508-1.138-0.091-1.972l28.029-56.166c0.364-0.73,1.146-1.202,1.993-1.202     h70.345c1.217,0,2.207,0.944,2.207,2.105V244.928z" fill="#FFFFFF"/>
			<path d="M405.488,133.828h9.707c4.143,0,7.5-3.358,7.5-7.5c0-4.142-3.357-7.5-7.5-7.5h-9.707c-4.143,0-7.5,3.358-7.5,7.5     C397.988,130.469,401.345,133.828,405.488,133.828z" fill="#FFFFFF"/>
		</g>
	</g>
</g>
<g>
</g>
<g>
</g>
<g>
</g>
<g>
</g>
<g>
</g>
<g>
</g>
<g>
</g>
<g>
</g>
<g>
</g>
<g>
</g>
<g>
</g>
<g>
</g>
<g>
</g>
<g>
</g>
<g>
</g>
</svg>
