<?xml version="1.0" encoding="iso-8859-1"?>
<!-- Generator: Adobe Illustrator 19.0.0, SVG Export Plug-In . SVG Version: 6.00 Build 0)  -->
<svg xmlns="http://www.w3.org/2000/svg" xmlns:xlink="http://www.w3.org/1999/xlink" version="1.1" id="Layer_1" x="0px" y="0px" viewBox="0 0 512 512" style="enable-background:new 0 0 512 512;" xml:space="preserve" width="512px" height="512px">
<g>
	<g>
		<g>
			<path d="M129.809,102.942c4.142,0,7.5-3.357,7.5-7.5V53.828h237.383v41.614c0,4.143,3.358,7.5,7.5,7.5c4.142,0,7.5-3.357,7.5-7.5     V27.5c0-15.164-12.336-27.5-27.5-27.5H149.809c-15.164,0-27.5,12.336-27.5,27.5v67.942     C122.309,99.585,125.667,102.942,129.809,102.942z M137.309,27.5c0-6.893,5.607-12.5,12.5-12.5h212.383     c6.893,0,12.5,5.607,12.5,12.5v11.328H137.309V27.5z" fill="#FFFFFF"/>
			<path d="M485.086,116.485H26.914C12.074,116.485,0,128.558,0,143.399v48.242c0,9.649,7.851,17.5,17.5,17.5h2.885v235.175     c0,17.279,12.027,31.8,28.15,35.633V494.5c0,9.649,7.851,17.5,17.5,17.5h18.828c9.649,0,17.5-7.851,17.5-17.5v-13.563h305.332     V494.5c0,9.649,7.851,17.5,17.5,17.5h18.828c9.649,0,17.5-7.851,17.5-17.5v-14.146c17.089-3.088,30.092-18.073,30.092-36.038     V209.14h2.885c9.649,0,17.5-7.851,17.5-17.5v-48.242C512,128.558,499.926,116.484,485.086,116.485z M84.863,497H66.035     c-1.378,0-2.5-1.121-2.5-2.5v-13.562h23.828c0,0,0,13.562,0,13.562C87.363,495.879,86.241,497,84.863,497z M446.523,494.5     c0,1.379-1.122,2.5-2.5,2.5h-18.828c-1.378,0-2.5-1.121-2.5-2.5v-13.562h23.828V494.5z M497,191.641c0,1.379-1.122,2.5-2.5,2.5     h-56.007c-4.142,0-7.5,3.357-7.5,7.5s3.358,7.5,7.5,7.5h38.123v235.175c0,11.922-9.699,21.621-21.621,21.621h-0.971H57.006     c-11.922,0-21.621-9.699-21.621-21.621V209.14h57.802v30.742c0,15.163,12.336,27.5,27.5,27.5h18.242     c15.164,0,27.5-12.337,27.5-27.5v-37.656c0-15.163-12.336-27.5-27.5-27.5h-18.242c-12.351,0-22.826,8.184-26.287,19.414H17.5     c-1.378,0-2.5-1.121-2.5-2.5v-48.242c0-6.569,5.345-11.914,11.914-11.914h458.172c6.569,0,11.914,5.345,11.914,11.914V191.641z      M108.187,239.883v-37.656c0-6.893,5.607-12.5,12.5-12.5h18.242c6.893,0,12.5,5.607,12.5,12.5v37.656     c0,6.893-5.607,12.5-12.5,12.5h-18.242C113.795,252.383,108.187,246.775,108.187,239.883z" fill="#FFFFFF"/>
			<path d="M391.312,174.727H373.07c-12.351,0-22.826,8.184-26.287,19.414H186.109c-4.142,0-7.5,3.357-7.5,7.5s3.358,7.5,7.5,7.5     H345.57v30.742c0,15.163,12.336,27.5,27.5,27.5h18.242c15.164,0,27.5-12.337,27.5-27.5v-37.656     C418.812,187.063,406.476,174.727,391.312,174.727z M403.812,239.883c0,6.893-5.607,12.5-12.5,12.5H373.07     c-6.893,0-12.5-5.607-12.5-12.5v-37.656c0-6.893,5.607-12.5,12.5-12.5h18.242c6.893,0,12.5,5.607,12.5,12.5V239.883z" fill="#FFFFFF"/>
			<path d="M275.414,344.601H263.5v-11.914c0-4.143-3.358-7.5-7.5-7.5c-4.142,0-7.5,3.357-7.5,7.5v11.914h-11.914     c-4.142,0-7.5,3.357-7.5,7.5s3.358,7.5,7.5,7.5H248.5v11.914c0,4.143,3.358,7.5,7.5,7.5c4.142,0,7.5-3.357,7.5-7.5v-11.914     h11.914c4.142,0,7.5-3.357,7.5-7.5S279.556,344.601,275.414,344.601z" fill="#FFFFFF"/>
			<path d="M386.074,213.555h-9.707c-4.142,0-7.5,3.357-7.5,7.5s3.358,7.5,7.5,7.5h9.707c4.142,0,7.5-3.357,7.5-7.5     S390.216,213.555,386.074,213.555z" fill="#FFFFFF"/>
			<path d="M327.242,287.429c-7.739-8.307-18.07-12.881-29.09-12.881c-11.02,0-21.351,4.574-29.09,12.88l-4.344,4.662     c-2.279,2.446-5.375,3.793-8.717,3.793s-6.438-1.347-8.717-3.793l-4.344-4.661c-7.739-8.307-18.07-12.881-29.09-12.881     c-11.02,0-21.351,4.574-29.09,12.881c-0.171,0.183-0.334,0.377-0.486,0.577c-31.773,41.851,25.37,106.769,51.414,132.738     c5.509,5.494,12.724,8.518,20.313,8.518s14.803-3.025,20.314-8.519c26.043-25.967,83.186-90.885,51.413-132.737     C327.575,287.806,327.413,287.612,327.242,287.429z M265.726,410.121c-2.679,2.67-6.132,4.141-9.724,4.141     s-7.045-1.471-9.723-4.14c-37.245-37.138-69.924-86.179-50.285-112.742c4.838-5.053,11.165-7.832,17.857-7.832     c6.811,0,13.245,2.878,18.115,8.106l4.344,4.662c5.072,5.443,12.25,8.566,19.691,8.566c7.441,0,14.618-3.123,19.691-8.566     l4.344-4.662c4.87-5.227,11.303-8.106,18.115-8.106c6.692,0,13.019,2.779,17.857,7.832     C335.646,323.942,302.968,372.983,265.726,410.121z" fill="#FFFFFF"/>
			<path d="M133.691,228.555c4.142,0,7.5-3.357,7.5-7.5s-3.358-7.5-7.5-7.5h-9.707c-4.142,0-7.5,3.357-7.5,7.5s3.358,7.5,7.5,7.5     H133.691z" fill="#FFFFFF"/>
		</g>
	</g>
</g>
<g>
</g>
<g>
</g>
<g>
</g>
<g>
</g>
<g>
</g>
<g>
</g>
<g>
</g>
<g>
</g>
<g>
</g>
<g>
</g>
<g>
</g>
<g>
</g>
<g>
</g>
<g>
</g>
<g>
</g>
</svg>
