<?xml version="1.0" encoding="iso-8859-1"?>
<!-- Generator: Adobe Illustrator 19.0.0, SVG Export Plug-In . SVG Version: 6.00 Build 0)  -->
<svg xmlns="http://www.w3.org/2000/svg" xmlns:xlink="http://www.w3.org/1999/xlink" version="1.1" id="Layer_1" x="0px" y="0px" viewBox="0 0 512 512" style="enable-background:new 0 0 512 512;" xml:space="preserve" width="512px" height="512px">
<g>
	<g>
		<path d="M444.316,310.625h-11.914v-11.914c0-4.143-3.357-7.5-7.5-7.5s-7.5,3.357-7.5,7.5v11.914h-11.914    c-4.143,0-7.5,3.357-7.5,7.5s3.357,7.5,7.5,7.5h11.914v11.914c0,4.143,3.357,7.5,7.5,7.5s7.5-3.357,7.5-7.5v-11.914h11.914    c4.143,0,7.5-3.357,7.5-7.5S448.459,310.625,444.316,310.625z" fill="#FFFFFF"/>
	</g>
</g>
<g>
	<g>
		<path d="M386.074,155.312H374.16v-11.914c0-4.142-3.357-7.5-7.5-7.5s-7.5,3.357-7.5,7.5v11.914h-11.914    c-4.143,0-7.5,3.357-7.5,7.5s3.357,7.5,7.5,7.5h11.914v11.914c0,4.143,3.357,7.5,7.5,7.5s7.5-3.357,7.5-7.5v-11.914h11.914    c4.143,0,7.5-3.357,7.5-7.5S390.217,155.312,386.074,155.312z" fill="#FFFFFF"/>
	</g>
</g>
<g>
	<g>
		<path d="M444.316,411.578h-38.828c-4.143,0-7.5,3.357-7.5,7.5s3.357,7.5,7.5,7.5h38.828c4.143,0,7.5-3.357,7.5-7.5    S448.459,411.578,444.316,411.578z" fill="#FFFFFF"/>
	</g>
</g>
<g>
	<g>
		<path d="M444.316,388.281h-58.242c-4.143,0-7.5,3.357-7.5,7.5s3.357,7.5,7.5,7.5h58.242c4.143,0,7.5-3.357,7.5-7.5    S448.459,388.281,444.316,388.281z" fill="#FFFFFF"/>
	</g>
</g>
<g>
	<g>
		<path d="M230.762,58.242h-11.914V46.328c0-4.142-3.358-7.5-7.5-7.5c-4.143,0-7.5,3.357-7.5,7.5v11.914h-11.914    c-4.143,0-7.5,3.357-7.5,7.5s3.357,7.5,7.5,7.5h11.914v11.914c0,4.143,3.357,7.5,7.5,7.5s7.5-3.357,7.5-7.5V73.242h11.914    c4.143,0,7.5-3.357,7.5-7.5S234.905,58.242,230.762,58.242z" fill="#FFFFFF"/>
	</g>
</g>
<g>
	<g>
		<path d="M494.793,456.23h-2.207V269.883c0-9.649-7.851-17.5-17.5-17.5h-42.684V114.57c0-9.649-7.851-17.5-17.5-17.5H298.388    c-4.143,0-7.5,3.357-7.5,7.5s3.357,7.5,7.5,7.5h116.515c1.379,0,2.5,1.121,2.5,2.5v137.813h-81.481c-4.143,0-7.5,3.357-7.5,7.5    s3.357,7.5,7.5,7.5h139.165c1.379,0,2.5,1.121,2.5,2.5V456.23H311.823V211.64c0-9.649-7.851-17.5-17.5-17.5h-18.295V17.5    c0-9.649-7.851-17.5-17.5-17.5H72.709c-9.649,0-17.5,7.851-17.5,17.5v18.347c-3.986,2.35-6.674,6.675-6.674,11.627V84.01    c0,4.952,2.688,9.278,6.674,11.627v98.503H36.914c-9.649,0-17.5,7.851-17.5,17.5v244.59h-2.207C7.719,456.23,0,463.949,0,473.438    v21.355C0,504.281,7.719,512,17.207,512h477.586c9.488,0,17.207-7.719,17.207-17.207v-21.355    C512,463.949,504.281,456.23,494.793,456.23z M70.209,17.5c0-1.379,1.121-2.5,2.5-2.5h185.819c1.379,0,2.5,1.121,2.5,2.5v176.641    H70.209V97.51h47.775c7.444,0,13.5-6.056,13.5-13.5V47.475c0-7.444-6.056-13.5-13.5-13.5H70.209V17.5z M63.535,48.975h52.949    V82.51H63.535V48.975z M34.414,211.641c0-1.379,1.121-2.5,2.5-2.5h257.409c1.379,0,2.5,1.121,2.5,2.5v244.59H34.414V211.641z     M497,494.793c0,1.217-0.99,2.207-2.207,2.207H17.207C15.99,497,15,496.01,15,494.793v-21.355c0-1.217,0.99-2.207,2.207-2.207    h477.586c1.217,0,2.207,0.99,2.207,2.207V494.793z" fill="#FFFFFF"/>
	</g>
</g>
<g>
	<g>
		<path d="M226.772,301.403H196.9v-29.872c0-7.882-6.413-14.295-14.295-14.295H148.63c-7.882,0-14.295,6.413-14.295,14.295v29.872    h-29.872c-7.882,0-14.295,6.413-14.295,14.295v33.975c0,7.882,6.413,14.295,14.295,14.295h29.872v29.872    c0,7.882,6.413,14.295,14.295,14.295h33.975c7.882,0,14.295-6.413,14.295-14.295v-29.872h29.872    c7.882,0,14.295-6.413,14.295-14.295v-33.975C241.067,307.816,234.654,301.403,226.772,301.403z M226.067,348.968H189.4    c-4.143,0-7.5,3.357-7.5,7.5v36.667h-32.564v-36.667c0-4.143-3.357-7.5-7.5-7.5h-36.667v-32.564h36.667c4.143,0,7.5-3.357,7.5-7.5    v-36.667H181.9v36.667c0,4.143,3.357,7.5,7.5,7.5h36.667V348.968z" fill="#FFFFFF"/>
	</g>
</g>
<g>
	<g>
		<path d="M230.762,132.016H172.52c-4.143,0-7.5,3.357-7.5,7.5s3.357,7.5,7.5,7.5h58.242c4.143,0,7.5-3.357,7.5-7.5    S234.905,132.016,230.762,132.016z" fill="#FFFFFF"/>
	</g>
</g>
<g>
	<g>
		<path d="M230.762,155.313h-38.828c-4.143,0-7.5,3.357-7.5,7.5s3.357,7.5,7.5,7.5h38.828c4.143,0,7.5-3.357,7.5-7.5    S234.904,155.313,230.762,155.313z" fill="#FFFFFF"/>
	</g>
</g>
<g>
</g>
<g>
</g>
<g>
</g>
<g>
</g>
<g>
</g>
<g>
</g>
<g>
</g>
<g>
</g>
<g>
</g>
<g>
</g>
<g>
</g>
<g>
</g>
<g>
</g>
<g>
</g>
<g>
</g>
</svg>
