<?xml version="1.0" encoding="iso-8859-1"?>
<!-- Generator: Adobe Illustrator 19.0.0, SVG Export Plug-In . SVG Version: 6.00 Build 0)  -->
<svg xmlns="http://www.w3.org/2000/svg" xmlns:xlink="http://www.w3.org/1999/xlink" version="1.1" id="Layer_1" x="0px" y="0px" viewBox="0 0 512 512" style="enable-background:new 0 0 512 512;" xml:space="preserve" width="512px" height="512px">
<g>
	<g>
		<g>
			<path d="M118.251,298.711v0.971c0,4.143,3.357,7.5,7.5,7.5s7.5-3.357,7.5-7.5v-0.971c0-4.143-3.357-7.5-7.5-7.5     C121.608,291.211,118.251,294.568,118.251,298.711z" fill="#FFFFFF"/>
			<path d="M104.52,279.297c0-4.143-3.357-7.5-7.5-7.5s-7.5,3.357-7.5,7.5v0.971c0,4.143,3.357,7.5,7.5,7.5s7.5-3.357,7.5-7.5     V279.297z" fill="#FFFFFF"/>
			<path d="M192.791,497h-90.982C84.82,497,71,482.946,71,465.672V250.176c0-0.089,0-0.178,0.001-0.266h34.873     c4.744,0,9.496,1.138,13.741,3.29l60.437,30.627c6.336,3.212,13.433,4.91,20.522,4.91h11.368c4.143,0,7.5-3.357,7.5-7.5     s-3.357-7.5-7.5-7.5h-11.368c-4.744,0-9.496-1.138-13.741-3.29l-60.439-30.628c-6.336-3.212-13.433-4.91-20.522-4.91h-30.94     c4.257-7.716,11.648-13.513,20.579-15.396c7.347-1.549,12.679-8.161,12.679-15.724v-3.282c0-8.863-7.159-16.074-15.96-16.074     c-6.425,0-11.654-5.345-11.654-11.914v-48.535c0-17.274,13.821-31.328,30.809-31.328h37.59c4.143,0,7.5-3.357,7.5-7.5     s-3.357-7.5-7.5-7.5h-12.053V63.535h42.462v14.12h-6.945c-4.143,0-7.5,3.357-7.5,7.5s3.357,7.5,7.5,7.5h32.482     c16.989,0,30.809,14.054,30.809,31.328v48.535c0,6.536-5.177,11.86-11.559,11.914c-0.033-0.001-0.064-0.001-0.096-0.001H134.37     c-4.143,0-7.5,3.357-7.5,7.5s3.357,7.5,7.5,7.5h73.78c-0.023,0.355-0.035,0.714-0.035,1.075v3.282     c0,7.563,5.332,14.175,12.68,15.724c2.422,0.51,4.783,1.321,7.016,2.411c3.724,1.814,8.213,0.27,10.029-3.453     c1.816-3.722,0.27-8.213-3.453-10.029c-3.341-1.628-6.874-2.842-10.499-3.606c-0.447-0.094-0.772-0.534-0.772-1.046v-3.282     c0-0.593,0.431-1.074,0.96-1.074c14.697,0,26.654-12.073,26.654-26.914v-48.535c0-25.545-20.55-46.328-45.809-46.328h-10.537     V61.014c5.067-3.069,8.46-8.634,8.46-14.979V17.5c0-9.649-7.851-17.5-17.5-17.5h-54.382c-9.649,0-17.5,7.851-17.5,17.5v28.536     c0,6.343,3.394,11.91,8.46,14.979v16.643h-10.537c-25.259,0-45.809,20.783-45.809,46.328v48.535     c0,14.841,11.957,26.914,26.654,26.914c0.529,0,0.96,0.481,0.96,1.074v3.282c0,0.512-0.325,0.952-0.772,1.046     c-17.923,3.778-31.672,18.103-35.408,35.704c-0.061,0.239-0.111,0.483-0.149,0.732c-0.565,2.893-0.861,5.872-0.861,8.903v215.496     C56,491.217,76.55,512,101.809,512h90.982c4.143,0,7.5-3.357,7.5-7.5S196.934,497,192.791,497z M128.463,17.5     c0-1.379,1.121-2.5,2.5-2.5h54.382c1.379,0,2.5,1.121,2.5,2.5v28.535c0,1.379-1.121,2.5-2.5,2.5h-54.382     c-1.379,0-2.5-1.121-2.5-2.5V17.5z" fill="#FFFFFF"/>
			<path d="M214.656,400.635c0-4.143-3.357-7.5-7.5-7.5s-7.5,3.357-7.5,7.5c0,38.927,31.291,70.596,69.752,70.596     c4.143,0,7.5-3.357,7.5-7.5s-3.357-7.5-7.5-7.5C239.218,456.23,214.656,431.29,214.656,400.635z" fill="#FFFFFF"/>
			<path d="M97.02,377.604c-4.143,0-7.5,3.357-7.5,7.5v0.971c0,4.143,3.357,7.5,7.5,7.5s7.5-3.357,7.5-7.5v-0.971     C104.52,380.961,101.162,377.604,97.02,377.604z" fill="#FFFFFF"/>
			<path d="M433.887,334.947c-12.869-17.176-30.706-30.333-50.673-37.48v-8.464c0-4.143-3.357-7.5-7.5-7.5s-7.5,3.357-7.5,7.5     v13.894c0,3.316,2.176,6.239,5.354,7.187C413.271,321.937,441,359.573,441,401.605c0,52.601-42.176,95.395-94.019,95.396h-76.617     c-51.841,0-94.017-42.794-94.017-95.395c0-42.032,27.729-79.667,67.432-91.521c3.176-0.949,5.354-3.872,5.354-7.187V269.59     c0-33.332,26.709-60.449,59.539-60.449c29.432,0,54.768,22.265,58.935,51.789c0.58,4.104,4.395,6.951,8.475,6.379     c4.102-0.579,6.957-4.373,6.379-8.475c-4.849-34.354-32.704-60.838-66.288-64.308v-15.463c0.6-0.337,1.163-0.762,1.67-1.276     l26.528-26.889h32.213c42.733,0,77.5-34.767,77.5-77.5V36.621c0-4.143-3.357-7.5-7.5-7.5h-35.349     c-42.733,0-77.5,34.767-77.5,77.5v33.7l-17.563,17.801V94.863c0-2.311-1.066-4.493-2.889-5.915l-24.9-19.414     c-3.267-2.545-7.978-1.963-10.526,1.304c-2.547,3.266-1.963,7.979,1.304,10.526l22.012,17.162v95.994     c-37.593,3.819-67.039,36.029-67.039,75.07v27.878c-19.967,7.147-37.804,20.303-50.673,37.48     c-14.467,19.308-22.113,42.358-22.113,66.657c0,60.873,48.905,110.395,109.017,110.395h76.617     C407.095,512,456,462.478,456,401.605C456,377.307,448.354,354.257,433.887,334.947z M348.735,106.621     c0-34.463,28.037-62.5,62.5-62.5h27.849v29.277c0,34.463-28.037,62.5-62.5,62.5h-17.413l54.443-55.182     c2.909-2.948,2.877-7.697-0.071-10.606c-2.948-2.908-7.695-2.879-10.606,0.071l-54.201,54.937h-0.001V106.621z" fill="#FFFFFF"/>
		</g>
	</g>
</g>
<g>
</g>
<g>
</g>
<g>
</g>
<g>
</g>
<g>
</g>
<g>
</g>
<g>
</g>
<g>
</g>
<g>
</g>
<g>
</g>
<g>
</g>
<g>
</g>
<g>
</g>
<g>
</g>
<g>
</g>
</svg>
