<?xml version="1.0" encoding="iso-8859-1"?>
<!-- Generator: Adobe Illustrator 19.0.0, SVG Export Plug-In . SVG Version: 6.00 Build 0)  -->
<svg xmlns="http://www.w3.org/2000/svg" xmlns:xlink="http://www.w3.org/1999/xlink" version="1.1" id="Layer_1" x="0px" y="0px" viewBox="0 0 512 512" style="enable-background:new 0 0 512 512;" xml:space="preserve" width="512px" height="512px">
<g>
	<g>
		<g>
			<path d="M321.02,211.262c-3.149-2.693-7.884-2.321-10.574,0.827c-2.692,3.148-2.32,7.883,0.828,10.574     c18.712,15.997,29.444,39.212,29.444,63.692c0,46.34-38.004,84.041-84.717,84.041s-84.717-37.701-84.717-84.041     s38.004-84.041,84.717-84.041c10.581,0,20.897,1.909,30.665,5.673c3.869,1.49,8.206-0.438,9.695-4.302     c1.489-3.865-0.436-8.206-4.301-9.695c-11.496-4.43-23.628-6.676-36.06-6.676c-54.985,0-99.717,44.43-99.717,99.041     s44.732,99.041,99.717,99.041c54.985,0,99.717-44.43,99.717-99.041C355.717,257.483,343.07,230.113,321.02,211.262z" fill="#FFFFFF"/>
			<path d="M241.967,349.575h28.066c7.23,0,13.113-5.864,13.113-13.072v-23.146h23.372c7.23,0,13.113-5.864,13.113-13.072v-27.86     c0-7.208-5.883-13.072-13.113-13.072h-23.372v-23.146c0-7.208-5.883-13.072-13.113-13.072h-28.066     c-7.23,0-13.113,5.864-13.113,13.072v23.146h-23.372c-7.23,0-13.113,5.864-13.113,13.072v27.86     c0,7.208,5.883,13.072,13.113,13.072h23.372v23.146C228.854,343.712,234.736,349.577,241.967,349.575z M207.369,298.358v-24.005     h28.985c4.143,0,7.5-3.358,7.5-7.5v-28.718h24.293v28.718c0,4.142,3.357,7.5,7.5,7.5h28.985v24.005h-28.985     c-4.143,0-7.5,3.358-7.5,7.5v28.718h-24.293v-28.718c0-4.142-3.357-7.5-7.5-7.5H207.369z" fill="#FFFFFF"/>
			<path d="M484.5,115.046h-22.006v-6.954c0-9.449-7.719-17.136-17.207-17.136h-29.121c-9.488,0-17.207,7.687-17.207,17.136v6.954     h-5.937l-23.747-62.862c-3.214-8.511-11.512-14.229-20.649-14.229h-16.417c-1.296-8.18-8.424-14.454-16.996-14.454h-78.629     c-4.143,0-7.5,3.358-7.5,7.5c0,4.142,3.357,7.5,7.5,7.5h78.629c1.217,0,2.207,0.958,2.207,2.136v38.544     c0,1.178-0.99,2.136-2.207,2.136H196.787c-1.217,0-2.207-0.958-2.207-2.136V40.636c0-1.178,0.99-2.136,2.207-2.136h13.832     c4.143,0,7.5-3.358,7.5-7.5c0-4.142-3.357-7.5-7.5-7.5h-13.832c-8.572,0-15.7,6.275-16.996,14.454h-16.417     c-9.136,0-17.434,5.719-20.648,14.229l-23.748,62.863h-5.937v-6.954c0-9.449-7.719-17.136-17.207-17.136H66.713     c-9.488,0-17.207,7.687-17.207,17.136v6.954H27.5c-15.164,0-27.5,12.336-27.5,27.5v287.62c0,15.164,12.336,27.5,27.5,27.5h26.894     v13.699c0,9.449,7.719,17.136,17.207,17.136h18.276c9.488,0,17.207-7.687,17.207-17.136v-13.699h295.948v13.699     c0,9.449,7.719,17.136,17.207,17.136h18.276c9.488,0,17.207-7.687,17.207-17.136v-13.699H484.5c15.164,0,27.5-12.336,27.5-27.5     v-287.62C512,127.382,499.664,115.046,484.5,115.046z M413.959,108.092c0-1.178,0.99-2.136,2.207-2.136h29.121     c1.217,0,2.207,0.958,2.207,2.136v6.954h-33.535V108.092z M332.42,52.955h16.206c2.934,0,5.594,1.82,6.617,4.529l21.745,57.562     h-15.067l-16.37-43.334c-1.102-2.919-3.896-4.85-7.016-4.85h-6.115V52.955z M196.787,96.316h118.425     c8.572,0,15.7-6.275,16.997-14.454h1.142l12.535,33.184H166.113l12.535-33.184h1.142     C181.087,90.042,188.215,96.316,196.787,96.316z M156.758,57.483c1.022-2.709,3.681-4.529,6.616-4.529h16.206v13.907h-6.115     c-3.12,0-5.914,1.932-7.016,4.85l-16.37,43.334h-15.067L156.758,57.483z M64.506,108.092c0-1.178,0.99-2.136,2.207-2.136h29.121     c1.217,0,2.207,0.958,2.207,2.136v6.954H64.506V108.092z M92.084,471.365c0,1.178-0.99,2.136-2.207,2.136H71.601     c-1.217,0-2.207-0.958-2.207-2.136v-13.699h22.69V471.365z M440.722,471.365c0,1.178-0.99,2.136-2.207,2.136h-18.276     c-1.217,0-2.207-0.958-2.207-2.136v-13.699h22.69V471.365z M497,430.165c0,6.893-5.607,12.5-12.5,12.5h-457     c-6.893,0-12.5-5.607-12.5-12.5v-287.62c0-6.893,5.607-12.5,12.5-12.5h96.484c0.118,0.003,0.234,0.003,0.351,0h30.753     c0.116,0.003,0.231,0.003,0.348,0h201.128c0.118,0.003,0.233,0.003,0.348,0h30.753c0.118,0.003,0.234,0.003,0.351,0H484.5     c6.893,0,12.5,5.607,12.5,12.5V430.165z" fill="#FFFFFF"/>
		</g>
	</g>
</g>
<g>
</g>
<g>
</g>
<g>
</g>
<g>
</g>
<g>
</g>
<g>
</g>
<g>
</g>
<g>
</g>
<g>
</g>
<g>
</g>
<g>
</g>
<g>
</g>
<g>
</g>
<g>
</g>
<g>
</g>
</svg>
