<?xml version="1.0" encoding="iso-8859-1"?>
<!-- Generator: Adobe Illustrator 19.0.0, SVG Export Plug-In . SVG Version: 6.00 Build 0)  -->
<svg xmlns="http://www.w3.org/2000/svg" xmlns:xlink="http://www.w3.org/1999/xlink" version="1.1" id="Layer_1" x="0px" y="0px" viewBox="0 0 512 512" style="enable-background:new 0 0 512 512;" xml:space="preserve" width="512px" height="512px">
<g>
	<g>
		<g>
			<path d="M268.359,175.39c0-7.23-5.89-13.113-13.13-13.113H227.08c-7.24,0-13.13,5.883-13.13,13.113v23.373h-23.463     c-7.24,0-13.13,5.882-13.13,13.113v28.066c0,7.23,5.89,13.113,13.13,13.113h23.463v23.373c0,7.23,5.89,13.113,13.13,13.113     h28.149c7.24,0,13.13-5.883,13.13-13.113v-23.373h23.463c7.24,0,13.13-5.882,13.13-13.113v-28.066     c0-7.23-5.89-13.113-13.13-13.113h-23.463V175.39z M289.952,213.762v24.292h-29.093c-4.142,0-7.5,3.358-7.5,7.5v28.986H228.95     v-28.986c0-4.142-3.358-7.5-7.5-7.5h-29.093v-24.292h29.093c4.142,0,7.5-3.358,7.5-7.5v-28.986h24.409v28.986     c0,4.142,3.358,7.5,7.5,7.5H289.952z" fill="#FFFFFF"/>
			<path d="M241.155,325.624c55.133,0,99.988-44.733,99.988-99.717c0-25.453-9.616-49.687-27.077-68.236     c-2.838-3.016-7.585-3.159-10.601-0.32c-3.016,2.839-3.159,7.586-0.32,10.602c14.831,15.756,22.999,36.338,22.999,57.955     c0,46.713-38.126,84.717-84.989,84.717c-46.863,0-84.989-38.004-84.989-84.717s38.126-84.717,84.989-84.717     c12.505,0,24.546,2.642,35.788,7.853c3.758,1.741,8.216,0.107,9.958-3.651c1.741-3.757,0.107-8.216-3.651-9.958     c-13.233-6.134-27.397-9.244-42.096-9.244c-55.133,0-99.988,44.733-99.988,99.717     C141.166,280.892,186.022,325.624,241.155,325.624z" fill="#FFFFFF"/>
			<path d="M495.096,123.984l15.333-27.796c2.157-3.909,2.089-8.538-0.181-12.382c-2.274-3.851-6.304-6.15-10.78-6.15h-56.101     V65.845c0.011-0.764-0.094-1.534-0.321-2.282c-0.227-0.748-0.567-1.446-1.001-2.075l-16.627-24.867L436.9,19.448     c2.569-3.842,2.812-8.762,0.634-12.839C435.356,2.533,431.131,0,426.509,0H26.971C12.099,0,0,12.074,0,26.914v458.172     C0,499.926,12.099,512,26.971,512h388.896c15.163,0,27.499-12.336,27.499-27.5V170.313h56.101c4.476,0,8.506-2.299,10.78-6.15     c2.269-3.844,2.337-8.473,0.181-12.382L495.096,123.984z M38.943,497H26.971C20.37,497,15,491.655,15,485.086V73.242h23.943V497z      M15,58.242V26.914C15,20.345,20.37,15,26.971,15H421.83l-9.442,14.121H85.385c-4.142,0-7.5,3.358-7.5,7.5     c0,4.142,3.358,7.5,7.5,7.5h327.004l9.442,14.121H46.442H15z M443.367,155.313v-21.621c0-4.142-3.358-7.5-7.5-7.5     c-4.142,0-7.5,3.358-7.5,7.5V484.5c0,6.893-5.607,12.5-12.5,12.5H53.942V73.242h374.425v31.329c0,4.142,3.358,7.5,7.5,7.5     c4.142,0,7.5-3.358,7.5-7.5V92.656h51.88l-15.283,27.706c-1.244,2.255-1.244,4.99,0,7.245l15.283,27.706H443.367z" fill="#FFFFFF"/>
			<path d="M357.982,378.574H124.327c-4.142,0-7.5,3.358-7.5,7.5c0,4.142,3.358,7.5,7.5,7.5h233.655c4.142,0,7.5-3.358,7.5-7.5     C365.482,381.932,362.124,378.574,357.982,378.574z" fill="#FFFFFF"/>
			<path d="M312.549,407.695H169.76c-4.142,0-7.5,3.358-7.5,7.5c0,4.142,3.358,7.5,7.5,7.5h142.789c4.142,0,7.5-3.358,7.5-7.5     C320.049,411.053,316.691,407.695,312.549,407.695z" fill="#FFFFFF"/>
			<path d="M250.89,456.23h-19.471c-4.142,0-7.5,3.358-7.5,7.5c0,4.142,3.358,7.5,7.5,7.5h19.471c4.142,0,7.5-3.358,7.5-7.5     C258.39,459.588,255.032,456.23,250.89,456.23z" fill="#FFFFFF"/>
		</g>
	</g>
</g>
<g>
</g>
<g>
</g>
<g>
</g>
<g>
</g>
<g>
</g>
<g>
</g>
<g>
</g>
<g>
</g>
<g>
</g>
<g>
</g>
<g>
</g>
<g>
</g>
<g>
</g>
<g>
</g>
<g>
</g>
</svg>
